<?xml version="1.0" encoding="utf-8"?>
<!-- Generator: Adobe Illustrator 16.0.0, SVG Export Plug-In . SVG Version: 6.00 Build 0)  -->
<!DOCTYPE svg PUBLIC "-//W3C//DTD SVG 1.1//EN" "http://www.w3.org/Graphics/SVG/1.1/DTD/svg11.dtd">
<svg version="1.1" id="Your_Icon" xmlns="http://www.w3.org/2000/svg" xmlns:xlink="http://www.w3.org/1999/xlink" x="0px" y="0px"
	 width="77.667px" height="100px" viewBox="11.167 0 77.667 100" enable-background="new 11.167 0 77.667 100" xml:space="preserve"
	>
<path id="tree_1_" fill="#27AE60" d="M87.868,72.669c-0.086,0.179-8.509,17.396-26.112,17.833l-0.896,6.248
	c-0.01,0.072-0.03,0.15-0.063,0.219C60.74,97.091,59.359,100,55.932,100H44.074c-3.432,0-4.813-2.909-4.867-3.031
	c-0.031-0.068-0.055-0.146-0.068-0.219l-0.893-6.248C20.64,90.064,12.218,72.848,12.134,72.669
	c-0.141-0.291-0.086-0.646,0.138-0.883c0.224-0.236,0.576-0.313,0.873-0.188c2.016,0.819,4.008,1.235,5.924,1.235
	c6.263,0,10.453-4.438,12.094-6.547c-6.724-1.044-11.471-9.009-11.682-9.367c-0.146-0.244-0.148-0.547-0.008-0.791
	c0.143-0.248,0.406-0.397,0.688-0.397c7.945,0,13.585-3.787,16.039-5.811c-8.859-0.752-10.599-6.557-10.674-6.823
	c-0.068-0.24-0.018-0.492,0.13-0.693c0.151-0.192,0.383-0.313,0.63-0.313c12.19,0,22.891-23.021,23-23.252
	c0.258-0.562,1.177-0.562,1.435,0c0.107,0.232,10.805,23.252,22.997,23.252c0.245,0,0.479,0.12,0.628,0.313
	c0.148,0.201,0.2,0.453,0.133,0.693c-0.072,0.266-1.813,6.065-10.666,6.82c2.455,2.024,8.108,5.813,16.03,5.813
	c0.284,0,0.548,0.149,0.688,0.397c0.141,0.244,0.136,0.547-0.006,0.791c-0.213,0.358-4.961,8.323-11.683,9.367
	c1.636,2.106,5.828,6.547,12.095,6.547c1.914,0,3.905-0.416,5.922-1.235c0.3-0.123,0.647-0.048,0.875,0.188
	C87.951,72.023,88.006,72.378,87.868,72.669z M46.066,9.232c0.456,0.362,0.698,1.107,0.531,1.662l-1.294,4.367
	c-0.164,0.552,0.076,0.716,0.531,0.356l3.362-2.641c0.448-0.359,1.198-0.359,1.656-0.005l3.392,2.646
	c0.45,0.359,0.688,0.195,0.526-0.356l-1.318-4.383c-0.163-0.555,0.07-1.3,0.523-1.656l3.405-2.677
	c0.456-0.356,0.353-0.651-0.228-0.651H53c-0.572,0-1.18-0.453-1.352-1.005l-1.347-4.471c-0.169-0.557-0.438-0.557-0.602,0
	l-1.328,4.471c-0.164,0.552-0.768,1.005-1.352,1.005h-4.18c-0.581,0-0.68,0.294-0.221,0.651L46.066,9.232z"/>
</svg>
